{
	"asset":{
		"generator":"Khronos glTF Blender I/O v4.2.70",
		"version":"2.0"
	},
	"extensionsUsed":[
		"KHR_materials_specular"
	],
	"scene":0,
	"scenes":[
		{
			"name":"Scene",
			"nodes":[
				0
			]
		}
	],
	"nodes":[
		{
			"mesh":0,
			"name":"20250206_145107_mesh"
		}
	],
	"materials":[
		{
			"doubleSided":true,
			"extensions":{
				"KHR_materials_specular":{
					"specularColorFactor":[
						1.0,
						0.0,
						0.005268883891403675
					]
				}
			},
			"name":"Gold mettalic",
			"normalTexture":{
				"index":0
			},
			"pbrMetallicRoughness":{
				"baseColorFactor":[
					0.10399922728538513,
					0.07550425827503204,
					0.026741722598671913,
					1
				],
				"roughnessFactor":0.05000000074505806
			}
		}
	],
	"meshes":[
		{
			"name":"20250206_145107_mesh",
			"primitives":[
				{
					"attributes":{
						"POSITION":0,
						"NORMAL":1,
						"TEXCOORD_0":2
					},
					"indices":3,
					"material":0
				}
			]
		}
	],
	"textures":[
		{
			"sampler":0,
			"source":0
		}
	],
	"images":[
		{
			"bufferView":4,
			"mimeType":"image/png",
			"name":"NORMAL"
		}
	],
	"accessors":[
		{
			"bufferView":0,
			"componentType":5126,
			"count":7565,
			"max":[
				0.7931032180786133,
				3.3031179904937744,
				1.1270527839660645
			],
			"min":[
				-1.058666467666626,
				1.7296464443206787,
				-0.24873696267604828
			],
			"type":"VEC3"
		},
		{
			"bufferView":1,
			"componentType":5126,
			"count":7565,
			"type":"VEC3"
		},
		{
			"bufferView":2,
			"componentType":5126,
			"count":7565,
			"type":"VEC2"
		},
		{
			"bufferView":3,
			"componentType":5123,
			"count":7623,
			"type":"SCALAR"
		}
	],
	"bufferViews":[
		{
			"buffer":0,
			"byteLength":90780,
			"byteOffset":0,
			"target":34962
		},
		{
			"buffer":0,
			"byteLength":90780,
			"byteOffset":90780,
			"target":34962
		},
		{
			"buffer":0,
			"byteLength":60520,
			"byteOffset":181560,
			"target":34962
		},
		{
			"buffer":0,
			"byteLength":15246,
			"byteOffset":242080,
			"target":34963
		},
		{
			"buffer":0,
			"byteLength":2102667,
			"byteOffset":257328
		}
	],
	"samplers":[
		{
			"magFilter":9729,
			"minFilter":9987
		}
	],
	"buffers":[
		{
			"byteLength":2359996,
			"uri":"data:application/octet-stream;base64,"
		}
	]
}
